<svg width="12" height="22" viewBox="0 0 12 22" fill="none" xmlns="http://www.w3.org/2000/svg">
<path fill-rule="evenodd" clip-rule="evenodd" d="M11.4772 18.8594L3.61884 11.0017L11.5808 3.03915H11.5796C11.8395 2.76914 12.0004 2.40255 12.0004 1.99725C12.0004 1.16934 11.3293 0.497596 10.5007 0.497596C10.0955 0.497596 9.72953 0.657338 9.45888 0.919006V0.917818L0.458556 9.91751L0.459816 9.9187C0.177264 10.1911 0.000792 10.5738 0.000792 10.9982C0.000792 10.9993 0.000792 11.0005 0.000792 11.0017C0.000792 11.0029 0.000792 11.0041 0.000792 11.0053C0.000792 11.4279 0.177264 11.8112 0.459816 12.0835H0.458556L9.45888 21.0839L9.46242 21.0809C9.73193 21.339 10.0978 21.4975 10.5007 21.4975C11.3293 21.4975 12.0004 20.827 12.0004 19.9985C12.0004 19.5431 11.7978 19.1354 11.4772 18.8594Z" fill="#CCCCCC"/>
</svg>
