<svg width="12" height="22" viewBox="0 0 12 22" fill="none" xmlns="http://www.w3.org/2000/svg">
<path fill-rule="evenodd" clip-rule="evenodd" d="M0.522756 18.8594L8.38108 11.0017L0.419076 3.03915H0.420216C0.16044 2.76914 -0.000576 2.40255 -0.000576 1.99725C-0.000576 1.16934 0.67062 0.497596 1.49905 0.497596C1.9044 0.497596 2.27039 0.657338 2.54104 0.919006V0.917818L11.5412 9.91751L11.5401 9.9187C11.8227 10.1911 11.999 10.5738 11.999 10.9982C11.999 10.9993 11.999 11.0005 11.999 11.0017C11.999 11.0029 11.999 11.0041 11.999 11.0053C11.999 11.4279 11.8227 11.8112 11.5401 12.0835H11.5412L2.54104 21.0839L2.53738 21.0809C2.26799 21.339 1.902 21.4975 1.49905 21.4975C0.67062 21.4975 -0.000576 20.827 -0.000576 19.9985C-0.000576 19.5431 0.202092 19.1354 0.522756 18.8594Z" fill="#CCCCCC"/>
</svg>
